<svg width="34" height="42" viewBox="0 0 34 42" fill="none" xmlns="http://www.w3.org/2000/svg">
<path d="M1 36H0.5H1ZM6 31L6 30.5L6 31ZM33 31.5C33.2761 31.5 33.5 31.2761 33.5 31C33.5 30.7239 33.2761 30.5 33 30.5V31.5ZM6 1V0.5V1ZM33 1H33.5C33.5 0.723858 33.2761 0.5 33 0.5V1ZM33 41V41.5C33.2761 41.5 33.5 41.2761 33.5 41H33ZM1 6H0.5H1ZM1.5 36C1.5 34.8065 1.97411 33.6619 2.81802 32.818L2.11091 32.1109C1.07946 33.1424 0.5 34.5413 0.5 36H1.5ZM2.81802 32.818C3.66193 31.9741 4.80653 31.5 6 31.5L6 30.5C4.54131 30.5 3.14236 31.0795 2.11091 32.1109L2.81802 32.818ZM6 31.5H33V30.5H6V31.5ZM6 1.5H33V0.5H6V1.5ZM32.5 1V41H33.5V1H32.5ZM33 40.5H6V41.5H33V40.5ZM6 40.5C4.80653 40.5 3.66193 40.0259 2.81802 39.182L2.11091 39.8891C3.14236 40.9205 4.54131 41.5 6 41.5V40.5ZM2.81802 39.182C1.97411 38.3381 1.5 37.1935 1.5 36H0.5C0.5 37.4587 1.07946 38.8576 2.11091 39.8891L2.81802 39.182ZM1.5 36V6H0.5V36H1.5ZM1.5 6C1.5 4.80653 1.97411 3.66193 2.81802 2.81802L2.11091 2.11091C1.07946 3.14236 0.5 4.54131 0.5 6L1.5 6ZM2.81802 2.81802C3.66193 1.97411 4.80653 1.5 6 1.5V0.5C4.54131 0.5 3.14236 1.07946 2.11091 2.11091L2.81802 2.81802ZM3.63968 5.55113C5.63405 7.62409 8.12392 8.33386 10.7504 8.33167C13.36 8.32949 16.1391 7.62519 18.7676 6.84288C21.4276 6.05121 23.9064 5.19006 26.0262 4.80812C28.1644 4.42285 29.7045 4.57343 30.6387 5.55008L31.3613 4.85885C30.0455 3.48329 28.0231 3.43221 25.8488 3.82396C23.6561 4.21904 21.0724 5.11359 18.4824 5.88442C15.8609 6.66461 13.2025 7.32962 10.7496 7.33167C8.31358 7.33371 6.11595 6.68264 4.36032 4.85781L3.63968 5.55113ZM3.63968 14.4388C5.63405 16.5117 8.12392 17.2215 10.7504 17.2193C13.36 17.2171 16.1391 16.5128 18.7676 15.7305C21.4276 14.9389 23.9064 14.0777 26.0262 13.6958C28.1644 13.3105 29.7045 13.4611 30.6387 14.4377L31.3613 13.7465C30.0455 12.371 28.0231 12.3199 25.8488 12.7116C23.6561 13.1067 21.0724 14.0012 18.4824 14.7721C15.8609 15.5523 13.2025 16.2173 10.7496 16.2193C8.31358 16.2214 6.11595 15.5703 4.36032 13.7455L3.63968 14.4388ZM3.63968 23.4388C5.63405 25.5117 8.12392 26.2215 10.7504 26.2193C13.36 26.2171 16.1391 25.5128 18.7676 24.7305C21.4276 23.9389 23.9064 23.0777 26.0262 22.6958C28.1644 22.3105 29.7045 22.4611 30.6387 23.4377L31.3613 22.7465C30.0455 21.371 28.0231 21.3199 25.8488 21.7116C23.6561 22.1067 21.0724 23.0012 18.4824 23.7721C15.8609 24.5523 13.2025 25.2173 10.7496 25.2193C8.31358 25.2214 6.11595 24.5703 4.36032 22.7455L3.63968 23.4388Z" fill="black"/>
</svg>
